# This file uses centimeters as units for non-parametric coordinates.

mtllib Portal_Big_Bloking.mtl
g default
v -456.699371 49.560238 240.539093
v -456.699371 5.571463 160.964310
v -456.699371 431.007446 160.964249
v -456.699371 387.018707 240.539047
v -470.066833 5.571463 160.964310
v -470.066833 49.560238 240.539093
v -470.066833 387.018707 240.539047
v -470.066833 431.007446 160.964249
v -456.699371 5.571415 -132.840378
v -456.699371 49.560169 -212.415146
v -456.699371 387.018646 -212.415207
v -456.699371 431.007416 -132.840439
v -470.066833 49.560169 -212.415146
v -470.066833 5.571415 -132.840378
v -470.066833 431.007416 -132.840439
v -470.066833 387.018646 -212.415207
vt 0.375000 0.793920
vt 0.410114 0.750000
vt 0.589886 0.750000
vt 0.625000 0.793920
vt 0.625000 0.956080
vt 0.589886 1.000000
vt 0.410114 1.000000
vt 0.375000 0.956080
vt 0.410114 0.500000
vt 0.589886 0.500000
vt 0.410114 0.750000
vt 0.668920 0.500000
vt 0.831080 0.500000
vt 0.831080 0.750000
vt 0.668920 0.750000
vt 0.410114 0.000000
vt 0.589886 0.000000
vt 0.589886 0.250000
vt 0.410114 0.250000
vt 0.375000 0.293920
vt 0.410114 0.250000
vt 0.625000 0.293920
vt 0.625000 0.456080
vt 0.410114 0.500000
vt 0.375000 0.456080
vt 0.168920 0.500000
vt 0.168920 0.750000
vt 0.125000 0.750000
vt 0.125000 0.500000
vt 0.625000 0.000000
vt 0.625000 0.250000
vt 0.331080 0.750000
vt 0.331080 0.500000
vn 1.000000 0.000000 0.000000
vn 1.000000 0.000000 0.000000
vn 1.000000 0.000000 0.000000
vn 1.000000 0.000000 0.000000
vn 1.000000 0.000000 0.000000
vn 1.000000 0.000000 0.000000
vn 1.000000 0.000000 0.000000
vn 1.000000 0.000000 0.000000
vn 0.000000 -0.000000 -1.000000
vn 0.000000 -0.000000 -1.000000
vn 0.000000 -0.000000 -1.000000
vn 0.000000 -0.000000 -1.000000
vn 0.000000 1.000000 -0.000000
vn 0.000000 1.000000 -0.000000
vn 0.000000 1.000000 -0.000000
vn 0.000000 1.000000 -0.000000
vn 0.000000 0.000000 1.000000
vn 0.000000 0.000000 1.000000
vn 0.000000 0.000000 1.000000
vn 0.000000 0.000000 1.000000
vn -1.000000 0.000000 0.000000
vn -1.000000 0.000000 0.000000
vn -1.000000 0.000000 0.000000
vn -1.000000 0.000000 0.000000
vn -1.000000 0.000000 0.000000
vn -1.000000 0.000000 0.000000
vn -1.000000 0.000000 0.000000
vn -1.000000 0.000000 0.000000
vn 0.000000 -0.875180 0.483798
vn 0.000000 -0.875180 0.483798
vn 0.000000 -0.875180 0.483798
vn 0.000000 -0.875180 0.483798
vn 0.000000 0.875181 0.483796
vn 0.000000 0.875181 0.483796
vn 0.000000 0.875181 0.483796
vn 0.000000 0.875181 0.483796
vn 0.000000 -0.875180 -0.483798
vn 0.000000 -0.875180 -0.483798
vn 0.000000 -0.875180 -0.483798
vn 0.000000 -0.875180 -0.483798
vn 0.000000 0.875180 -0.483797
vn 0.000000 0.875180 -0.483797
vn 0.000000 0.875180 -0.483797
vn 0.000000 0.875180 -0.483797
vn 0.000000 -1.000000 0.000000
vn 0.000000 -1.000000 0.000000
vn 0.000000 -1.000000 0.000000
vn 0.000000 -1.000000 0.000000
s off
g polySurface3
usemtl polySurface3SG
f 9/1/1 10/2/2 11/3/3 12/4/4 3/5/5 4/6/6 1/7/7 2/8/8
f 13/9/9 16/10/10 11/3/11 10/11/12
f 15/12/13 8/13/14 3/14/15 12/15/16
f 1/16/17 4/17/18 7/18/19 6/19/20
f 5/20/21 6/21/22 7/18/23 8/22/24 15/23/25 16/10/26 13/24/27 14/25/28
f 5/26/29 2/27/30 1/28/31 6/29/32
f 3/30/33 8/31/34 7/18/35 4/17/36
f 9/32/37 14/33/38 13/9/39 10/11/40
f 15/12/41 12/15/42 11/3/43 16/10/44
f 5/26/45 14/33/46 9/32/47 2/27/48
