# This file uses centimeters as units for non-parametric coordinates.

mtllib Bild_Big_Bloking.mtl
g default
v 508.706123 0.599971 553.522269
v 508.706123 180.394574 553.522256
v 502.081520 0.599971 553.522272
v 502.081520 180.394574 553.522258
v 508.705873 0.599941 155.600993
v 508.705873 180.394544 155.600979
v 502.081460 0.599941 155.600996
v 502.081460 180.394544 155.600982
vt 0.000000 0.000000
vt 0.000000 0.000000
vt 0.000000 0.000000
vt 0.000000 0.000000
vt 0.000000 0.000000
vt 0.000000 0.000000
vt 0.000000 0.000000
vt 0.000000 0.000000
vn 0.000000 0.000000 1.000000
vn 0.000000 0.000000 1.000000
vn 0.000000 0.000000 1.000000
vn 0.000000 0.000000 1.000000
vn -1.000000 -0.000000 0.000000
vn -1.000000 -0.000000 0.000000
vn -1.000000 -0.000000 0.000000
vn -1.000000 -0.000000 0.000000
vn -0.000000 -0.000000 -1.000000
vn -0.000000 -0.000000 -1.000000
vn -0.000000 -0.000000 -1.000000
vn -0.000000 -0.000000 -1.000000
vn 1.000000 -0.000000 -0.000001
vn 1.000000 -0.000000 -0.000001
vn 1.000000 -0.000000 -0.000001
vn 1.000000 -0.000000 -0.000001
vn 0.000000 -1.000000 0.000000
vn 0.000000 -1.000000 0.000000
vn 0.000000 -1.000000 0.000000
vn 0.000000 -1.000000 0.000000
vn -0.000000 1.000000 -0.000000
vn -0.000000 1.000000 -0.000000
vn -0.000000 1.000000 -0.000000
vn -0.000000 1.000000 -0.000000
s off
g polySurface68 polySurface67 polySurface65 polySurface59 polySurface52 stuff
usemtl stuffSG
f 1/1/1 2/2/2 4/3/3 3/4/4
f 3/4/5 4/3/6 8/5/7 7/6/8
f 7/6/9 8/5/10 6/7/11 5/8/12
f 5/8/13 6/7/14 2/2/15 1/1/16
f 3/4/17 7/6/18 5/8/19 1/1/20
f 8/5/21 4/3/22 2/2/23 6/7/24
