# This file uses centimeters as units for non-parametric coordinates.

mtllib Bild_Smoll_Bloking.mtl
g default
v 1231.993847 0.599863 -798.527268
v 1231.993847 180.394472 -798.527281
v 1231.993844 0.599862 -805.151776
v 1231.993844 180.394472 -805.151789
v 1430.053119 0.599863 -798.527154
v 1430.053119 180.394472 -798.527168
v 1430.053117 0.599862 -805.151758
v 1430.053117 180.394472 -805.151771
vt 0.000000 0.000000
vt 0.000000 0.000000
vt 0.000000 0.000000
vt 0.000000 0.000000
vt 0.000000 0.000000
vt 0.000000 0.000000
vt 0.000000 0.000000
vt 0.000000 0.000000
vn -1.000000 0.000000 0.000000
vn -1.000000 0.000000 0.000000
vn -1.000000 0.000000 0.000000
vn -1.000000 0.000000 0.000000
vn 0.000000 -0.000000 -1.000000
vn 0.000000 -0.000000 -1.000000
vn 0.000000 -0.000000 -1.000000
vn 0.000000 -0.000000 -1.000000
vn 1.000000 -0.000000 -0.000000
vn 1.000000 -0.000000 -0.000000
vn 1.000000 -0.000000 -0.000000
vn 1.000000 -0.000000 -0.000000
vn -0.000001 0.000000 1.000000
vn -0.000001 0.000000 1.000000
vn -0.000001 0.000000 1.000000
vn -0.000001 0.000000 1.000000
vn -0.000000 -1.000000 0.000000
vn -0.000000 -1.000000 0.000000
vn -0.000000 -1.000000 0.000000
vn -0.000000 -1.000000 0.000000
vn -0.000000 1.000000 -0.000000
vn -0.000000 1.000000 -0.000000
vn -0.000000 1.000000 -0.000000
vn -0.000000 1.000000 -0.000000
s off
g polySurface70 polySurface69 polySurface67 polySurface65 polySurface59 polySurface52 stuff
usemtl stuffSG
f 1/1/1 2/2/2 4/3/3 3/4/4
f 3/4/5 4/3/6 8/5/7 7/6/8
f 7/6/9 8/5/10 6/7/11 5/8/12
f 5/8/13 6/7/14 2/2/15 1/1/16
f 3/4/17 7/6/18 5/8/19 1/1/20
f 8/5/21 4/3/22 2/2/23 6/7/24
