# This file uses meters as units for non-parametric coordinates.

mtllib Samobranka.mtl
g default
v -30.922607 27.238358 12.970703
v -30.922607 27.238354 -12.729492
v 32.245605 27.238358 12.970703
v 32.245605 27.238354 -12.729492
v -9.866455 27.238354 -12.729492
v 11.189697 27.238354 -12.729492
v 11.189453 27.238358 12.970703
v -9.866699 27.238358 12.970703
v -9.866455 27.238350 -34.826721
v 11.189697 27.238350 -34.826721
v 11.189453 27.238361 35.067932
v -9.866699 27.238361 35.067932
v -48.123047 0.000146 82.966492
v -48.123047 0.000119 -82.725220
v 49.446045 0.000146 82.966492
v 49.446045 0.000119 -82.725220
v -46.998535 29.596104 81.841980
v -48.123047 28.471569 82.966492
v -48.123047 28.471542 -82.725220
v -46.998535 29.596077 -81.600708
v 49.446045 28.471542 -82.725220
v 48.321533 29.596077 -81.600708
v 49.446045 28.471569 82.966492
v 48.321533 29.596104 81.841980
v -30.069824 38.680229 -11.876831
v -30.922607 37.827541 -12.729492
v -9.013672 38.680229 -11.876831
v -9.866455 37.827541 -12.729492
v -30.069824 38.680229 12.118042
v -30.922607 37.827541 12.970703
v -9.013916 38.680229 12.118042
v -9.866699 37.827541 12.970703
v 31.392822 38.680229 -11.876831
v 32.245605 37.827541 -12.729492
v 10.336914 38.680229 -11.876831
v 11.189697 37.827541 -12.729492
v 31.392822 38.680229 12.118042
v 32.245605 37.827541 12.970703
v 10.336670 38.680229 12.118042
v 11.189453 37.827541 12.970703
v -9.013916 38.680237 34.215271
v -9.866699 37.827549 35.067932
v 10.336670 38.680237 34.215271
v 11.189453 37.827549 35.067932
v 10.336914 38.680222 -33.974060
v 11.189697 37.827534 -34.826721
v -9.013672 38.680222 -33.974060
v -9.866455 37.827534 -34.826721
vt 0.629789 0.620239
vt 0.967415 0.003906
vt 0.745648 0.620239
vt 0.861508 0.739323
vt 0.614397 0.990959
vt 0.735695 0.003906
vt 0.967414 0.376390
vt 0.259083 0.990970
vt 0.614391 0.381514
vt 0.861508 0.366839
vt 0.259076 0.381525
vt 0.851555 0.003906
vt 0.010483 0.555922
vt 0.184238 0.652255
vt 0.204571 0.664233
vt 0.008048 0.467585
vt 0.088898 0.555121
vt 0.797983 0.669179
vt 0.090028 0.637585
vt 0.794111 0.718119
vt 0.851442 0.767059
vt 0.087360 0.464818
vt 0.847147 0.629790
vt 0.087631 0.381540
vt 0.240946 0.551508
vt 0.003906 0.662737
vt 0.134784 0.740122
vt 0.161634 0.554276
vt 0.238511 0.463172
vt 0.233210 0.673784
vt 0.052878 0.651793
vt 0.161362 0.637554
vt 0.160096 0.463973
vt 0.666815 0.711986
vt 0.158966 0.381509
vt 0.003906 0.750612
vt 0.144849 0.652255
vt 0.243960 0.664233
vt 0.794111 0.678730
vt 0.797983 0.629790
vt 0.807758 0.629790
vt 0.043295 0.750612
vt 0.043295 0.662737
vt 0.134784 0.700733
vt 0.052878 0.691182
vt 0.706204 0.711986
vt 0.193821 0.673784
vt 0.851442 0.727670
vt 0.083210 0.460823
vt 0.847147 0.711986
vt 0.807758 0.711986
vt 0.242561 0.459116
vt 0.003906 0.567138
vt 0.043295 0.567139
vt 0.193821 0.752107
vt 0.164140 0.459861
vt 0.233210 0.752107
vt 0.715787 0.678730
vt 0.165403 0.641637
vt 0.715787 0.718119
vt 0.135074 0.691182
vt 0.165784 0.558271
vt 0.135074 0.651793
vt 0.245187 0.555337
vt 0.056461 0.740122
vt 0.056461 0.700733
vt 0.706205 0.629790
vt 0.162999 0.377456
vt 0.666815 0.629790
vt 0.083591 0.377456
vt 0.003906 0.672288
vt 0.043296 0.672288
vt 0.144849 0.730578
vt 0.084854 0.559232
vt 0.184238 0.730578
vt 0.085994 0.641637
vt 0.715787 0.669179
vt 0.715787 0.629790
vt 0.773120 0.727670
vt 0.003807 0.463757
vt 0.773120 0.767059
vt 0.006432 0.559977
vt 0.204571 0.568635
vt 0.243960 0.568634
vt 0.253542 0.996093
vt 0.851554 0.620239
vt 0.620238 0.003906
vt 0.861508 0.376390
vt 0.619931 0.376391
vt 0.735695 0.620239
vt 0.003906 0.366839
vt 0.967414 0.366839
vt 0.620239 0.366839
vt 0.629788 0.003906
vt 0.619931 0.996094
vt 0.967414 0.739323
vt 0.253543 0.376390
vt 0.003906 0.003906
vt 0.861508 0.003906
vt 0.745648 0.003906
vn 0.000000 -1.000000 0.000000
vn 0.000000 -1.000000 0.000000
vn 0.000000 -1.000000 0.000000
vn 0.000000 -1.000000 0.000000
vn -0.016108 0.999826 0.009440
vn -0.509059 0.807376 0.298334
vn 0.509058 0.807376 0.298334
vn 0.016108 0.999826 0.009440
vn -0.016108 0.999826 -0.009440
vn -0.509059 0.807376 -0.298334
vn 0.016108 0.999826 -0.009440
vn 0.509058 0.807376 -0.298334
vn -1.000000 0.000000 0.000000
vn -1.000000 0.000000 0.000000
vn -1.000000 0.000000 0.000000
vn -1.000000 0.000000 0.000000
vn 0.000000 0.000000 -1.000000
vn 0.000000 0.000000 -1.000000
vn 0.000000 0.000000 -1.000000
vn 0.000000 0.000000 -1.000000
vn 1.000000 0.000000 0.000000
vn 1.000000 0.000000 0.000000
vn 1.000000 0.000000 0.000000
vn 1.000000 0.000000 0.000000
vn 0.000000 0.000000 1.000000
vn 0.000000 0.000000 1.000000
vn 0.000000 0.000000 1.000000
vn 0.000000 0.000000 1.000000
vn -0.052559 0.997624 -0.044541
vn -0.441473 0.815582 -0.374070
vn -0.441475 0.815581 0.374068
vn -0.052559 0.997624 0.044541
vn -0.008072 0.999938 -0.007691
vn -0.418036 0.816429 -0.398358
vn -0.054735 0.997246 -0.050046
vn -0.426393 0.816236 -0.389806
vn -0.418038 0.816429 0.398356
vn -0.008072 0.999938 0.007691
vn -0.426393 0.816236 0.389806
vn -0.054735 0.997246 0.050045
vn 0.052559 0.997624 -0.044541
vn 0.441475 0.815582 -0.374068
vn 0.418038 0.816429 -0.398356
vn 0.008072 0.999938 -0.007691
vn 0.052559 0.997624 0.044541
vn 0.441472 0.815582 0.374069
vn 0.426393 0.816235 -0.389806
vn 0.054735 0.997246 -0.050046
vn 0.008072 0.999938 0.007691
vn 0.418036 0.816429 0.398358
vn 0.054735 0.997246 0.050045
vn 0.426393 0.816236 0.389806
vn -1.000000 0.000000 0.000000
vn -1.000000 0.000000 0.000000
vn -1.000000 0.000000 0.000000
vn -1.000000 0.000000 0.000000
vn -1.000000 0.000000 0.000000
vn -1.000000 0.000000 0.000000
vn -1.000000 0.000000 0.000000
vn -1.000000 0.000000 0.000000
vn 0.000000 0.000000 -1.000000
vn 0.000000 0.000000 -1.000000
vn 0.000000 0.000000 -1.000000
vn 0.000000 0.000000 -1.000000
vn 0.000000 0.000000 1.000000
vn 0.000000 0.000000 1.000000
vn 0.000000 0.000000 1.000000
vn 0.000000 0.000000 1.000000
vn 0.000000 0.000000 -1.000000
vn 0.000000 0.000000 -1.000000
vn 0.000000 0.000000 -1.000000
vn 0.000000 0.000000 -1.000000
vn 1.000000 0.000000 0.000000
vn 1.000000 0.000000 0.000000
vn 1.000000 0.000000 0.000000
vn 1.000000 0.000000 0.000000
vn 1.000000 0.000000 0.000000
vn 1.000000 0.000000 0.000000
vn 1.000000 0.000000 0.000000
vn 1.000000 0.000000 0.000000
vn 1.000000 0.000000 0.000000
vn 1.000000 0.000000 0.000000
vn 1.000000 0.000000 0.000000
vn 1.000000 0.000000 0.000000
vn 0.000000 0.000000 1.000000
vn 0.000000 0.000000 1.000000
vn 0.000000 0.000000 1.000000
vn 0.000000 0.000000 1.000000
vn -1.000000 0.000000 0.000000
vn -1.000000 0.000000 0.000000
vn -1.000000 0.000000 0.000000
vn -1.000000 0.000000 0.000000
vn 0.000000 0.000000 1.000000
vn 0.000000 0.000000 1.000000
vn 0.000000 0.000000 1.000000
vn 0.000000 0.000000 1.000000
vn 0.000000 0.000000 -1.000000
vn 0.000000 0.000000 -1.000000
vn 0.000000 0.000000 -1.000000
vn 0.000000 0.000000 -1.000000
s off
g Samobranka_Bloking:polySurface38
usemtl initialShadingGroup
f 14/91/1 16/98/2 15/87/3 13/93/4
s 1
f 17/5/5 18/95/6 23/85/7 24/8/8
f 18/95/6 17/5/5 20/9/9 19/89/10
f 19/89/10 20/9/9 22/11/11 21/97/12
f 21/97/12 22/11/11 24/8/8 23/85/7
s off
f 13/94/13 18/6/14 19/90/15 14/1/16
f 14/92/17 19/10/18 21/99/19 16/2/20
f 16/100/21 21/12/22 23/86/23 15/3/24
f 15/88/25 23/7/26 18/96/27 13/4/28
s 1
f 22/11/11 20/9/9 17/5/5 24/8/8
s 2
f 25/13/29 26/82/30 30/80/31 29/16/32
f 26/82/30 25/13/29 27/17/33 28/74/34
f 28/74/34 27/17/33 47/19/35 48/76/36
f 29/16/32 30/80/31 32/49/37 31/22/38
f 31/22/38 32/49/37 42/70/39 41/24/40
f 33/25/41 34/64/42 36/62/43 35/28/44
f 34/64/42 33/25/41 37/29/45 38/52/46
f 35/28/44 36/62/43 46/59/47 45/32/48
f 38/52/46 37/29/45 39/33/49 40/56/50
f 40/56/50 39/33/49 43/35/51 44/68/52
f 41/24/40 42/70/39 44/68/52 43/35/51
f 45/32/48 46/59/47 48/76/36 47/19/35
f 27/17/33 25/13/29 29/16/32 31/22/38
f 33/25/41 35/28/44 39/33/49 37/29/45
f 35/28/44 27/17/33 31/22/38 39/33/49
f 39/33/49 31/22/38 41/24/40 43/35/51
f 27/17/33 35/28/44 45/32/48 47/19/35
s off
f 30/15/53 26/83/54 2/84/55 1/38/56
f 28/18/57 48/77/58 9/78/59 5/40/60
f 26/14/61 28/75/62 5/73/63 2/37/64
f 44/36/65 42/71/66 12/72/67 11/42/68
f 36/27/69 34/65/70 4/66/71 6/44/72
f 46/31/73 36/63/74 6/61/75 10/45/76
f 40/34/77 44/69/78 11/67/79 7/46/80
f 34/26/81 38/53/82 3/54/83 4/43/84
f 38/30/85 40/57/86 7/55/87 3/47/88
f 42/23/89 32/50/90 8/51/91 12/41/92
f 32/21/93 30/81/94 1/79/95 8/48/96
f 48/20/97 46/60/98 10/58/99 9/39/100
